<svg xmlns="http://www.w3.org/2000/svg" xmlns:xlink="http://www.w3.org/1999/xlink" width="500" zoomAndPan="magnify" viewBox="0 0 375 374.999991" height="500" preserveAspectRatio="xMidYMid meet" version="1.0"><defs><g/></defs><g fill="#ffffff" fill-opacity="1"><g transform="translate(11.662411, 268.600265)"><g><path d="M 49.421875 30.359375 C 40.554688 30.359375 34.03125 28.054688 29.84375 23.453125 C 25.664062 18.859375 23.578125 11.625 23.578125 1.75 L 23.578125 -52.6875 C 23.578125 -59.71875 22.570312 -64.988281 20.5625 -68.5 C 18.5625 -72.007812 15.390625 -74.179688 11.046875 -75.015625 C 9.035156 -75.523438 8.03125 -76.695312 8.03125 -78.53125 L 8.03125 -87.0625 C 8.03125 -88.90625 9.035156 -90.078125 11.046875 -90.578125 C 15.390625 -91.242188 18.5625 -93.375 20.5625 -96.96875 C 22.570312 -100.570312 23.578125 -105.800781 23.578125 -112.65625 L 23.578125 -165.84375 C 23.578125 -175.550781 25.664062 -182.703125 29.84375 -187.296875 C 34.03125 -191.898438 40.554688 -194.203125 49.421875 -194.203125 L 64.484375 -194.203125 C 66.660156 -194.203125 67.75 -193.113281 67.75 -190.9375 L 67.75 -181.90625 C 67.75 -179.726562 66.660156 -178.640625 64.484375 -178.640625 L 55.703125 -178.640625 C 50.847656 -178.640625 47.25 -177.132812 44.90625 -174.125 C 42.570312 -171.113281 41.40625 -166.429688 41.40625 -160.078125 L 41.40625 -111.40625 C 41.40625 -103.875 40.441406 -97.890625 38.515625 -93.453125 C 36.585938 -89.023438 33.535156 -85.722656 29.359375 -83.546875 C 28.691406 -83.046875 28.691406 -82.546875 29.359375 -82.046875 C 33.535156 -79.703125 36.585938 -76.3125 38.515625 -71.875 C 40.441406 -67.445312 41.40625 -61.46875 41.40625 -53.9375 L 41.40625 -4.015625 C 41.40625 8.523438 46.171875 14.796875 55.703125 14.796875 L 64.484375 14.796875 C 66.660156 14.796875 67.75 15.882812 67.75 18.0625 L 67.75 27.09375 C 67.75 29.269531 66.660156 30.359375 64.484375 30.359375 Z M 49.421875 30.359375 "/></g></g></g><g fill="#ffffff" fill-opacity="1"><g transform="translate(87.436528, 268.600265)"><g><path d="M 26.84375 0 C 24.664062 0 23.578125 -1.085938 23.578125 -3.265625 L 23.578125 -172.375 C 23.578125 -174.550781 24.664062 -175.640625 26.84375 -175.640625 L 38.140625 -175.640625 C 40.316406 -175.640625 41.40625 -174.550781 41.40625 -172.375 L 41.40625 -3.265625 C 41.40625 -1.085938 40.316406 0 38.140625 0 Z M 26.84375 0 "/></g></g></g><g fill="#ffffff" fill-opacity="1"><g transform="translate(152.421601, 268.600265)"><g><path d="M 137 -163.34375 C 137 -161.164062 135.910156 -160.078125 133.734375 -160.078125 L 42.65625 -160.078125 C 41.820312 -160.078125 41.40625 -159.660156 41.40625 -158.828125 L 41.40625 -97.359375 C 41.40625 -96.515625 41.820312 -96.09375 42.65625 -96.09375 L 106.140625 -96.09375 C 108.304688 -96.09375 109.390625 -95.003906 109.390625 -92.828125 L 109.390625 -83.796875 C 109.390625 -81.628906 108.304688 -80.546875 106.140625 -80.546875 L 42.65625 -80.546875 C 41.820312 -80.546875 41.40625 -80.125 41.40625 -79.28125 L 41.40625 -3.265625 C 41.40625 -1.085938 40.316406 0 38.140625 0 L 26.84375 0 C 24.664062 0 23.578125 -1.085938 23.578125 -3.265625 L 23.578125 -172.375 C 23.578125 -174.550781 24.664062 -175.640625 26.84375 -175.640625 L 133.734375 -175.640625 C 135.910156 -175.640625 137 -174.550781 137 -172.375 Z M 137 -163.34375 "/></g></g></g><g fill="#ffffff" fill-opacity="1"><g transform="translate(294.937164, 268.600265)"><g><path d="M 11.296875 30.359375 C 9.117188 30.359375 8.03125 29.269531 8.03125 27.09375 L 8.03125 18.0625 C 8.03125 15.882812 9.117188 14.796875 11.296875 14.796875 L 20.078125 14.796875 C 29.609375 14.796875 34.375 8.523438 34.375 -4.015625 L 34.375 -53.9375 C 34.375 -61.46875 35.332031 -67.445312 37.25 -71.875 C 39.175781 -76.3125 42.234375 -79.703125 46.421875 -82.046875 C 47.085938 -82.546875 47.085938 -83.046875 46.421875 -83.546875 C 42.234375 -85.722656 39.175781 -89.023438 37.25 -93.453125 C 35.332031 -97.890625 34.375 -103.875 34.375 -111.40625 L 34.375 -160.078125 C 34.375 -166.429688 33.203125 -171.113281 30.859375 -174.125 C 28.515625 -177.132812 24.921875 -178.640625 20.078125 -178.640625 L 11.296875 -178.640625 C 9.117188 -178.640625 8.03125 -179.726562 8.03125 -181.90625 L 8.03125 -190.9375 C 8.03125 -193.113281 9.117188 -194.203125 11.296875 -194.203125 L 26.34375 -194.203125 C 35.207031 -194.203125 41.726562 -191.898438 45.90625 -187.296875 C 50.09375 -182.703125 52.1875 -175.550781 52.1875 -165.84375 L 52.1875 -112.65625 C 52.1875 -105.800781 53.1875 -100.570312 55.1875 -96.96875 C 57.195312 -93.375 60.378906 -91.242188 64.734375 -90.578125 C 66.742188 -90.078125 67.75 -88.90625 67.75 -87.0625 L 67.75 -78.53125 C 67.75 -76.695312 66.742188 -75.523438 64.734375 -75.015625 C 60.378906 -74.179688 57.195312 -72.007812 55.1875 -68.5 C 53.1875 -64.988281 52.1875 -59.71875 52.1875 -52.6875 L 52.1875 1.75 C 52.1875 11.625 50.09375 18.859375 45.90625 23.453125 C 41.726562 28.054688 35.207031 30.359375 26.34375 30.359375 Z M 11.296875 30.359375 "/></g></g></g></svg>